<svg width="200" height="80" xmlns="http://www.w3.org/2000/svg">
  <!-- Fondo con gradiente -->
  <defs>
    <linearGradient id="bgGradient" x1="0%" y1="0%" x2="100%" y2="100%">
      <stop offset="0%" style="stop-color:#1890cf;stop-opacity:1" />
      <stop offset="100%" style="stop-color:#0c5a8a;stop-opacity:1" />
    </linearGradient>
  </defs>
  
  <!-- Rectángulo de fondo -->
  <rect width="200" height="80" fill="url(#bgGradient)" rx="8"/>
  
  <!-- Icono de auto -->
  <g transform="translate(20, 25)">
    <path d="M 8 12 L 10 6 L 24 6 L 26 12 M 4 14 Q 4 12 6 12 L 28 12 Q 30 12 30 14 L 30 22 Q 30 24 28 24 L 6 24 Q 4 24 4 22 Z M 8 16 A 2 2 0 1 1 8 20 A 2 2 0 1 1 8 16 M 26 16 A 2 2 0 1 1 26 20 A 2 2 0 1 1 26 16" 
          fill="white" 
          stroke="white" 
          stroke-width="1.5"/>
  </g>
  
  <!-- Texto -->
  <text x="65" y="42" font-family="Arial, sans-serif" font-size="18" font-weight="bold" fill="white">
    Gestión
  </text>
  <text x="65" y="58" font-family="Arial, sans-serif" font-size="14" fill="rgba(255,255,255,0.9)">
    Automotora
  </text>
</svg>
